<svg width="1000" height="270" viewBox="0 0 1000 270" xmlns="http://www.w3.org/2000/svg">
<defs>
 <linearGradient id="bg" x1="0" y1="0" x2="1" y2="1"><stop stop-color="#0B1020"/><stop offset="1" stop-color="#151126"/></linearGradient>
 <linearGradient id="g" x1="0" x2="1"><stop stop-color="#22D3EE"/><stop offset="1" stop-color="#A855F7"/></linearGradient>
</defs>
<rect width="1000" height="270" rx="20" fill="url(#bg)" stroke="url(#g)" stroke-width="2"/>
<text x="40" y="48" fill="#E6EDF3" font-family="monospace" font-size="22" font-weight="700">ENGINEERING DASHBOARD</text>
<text x="40" y="76" fill="#94A3B8" font-family="monospace" font-size="14">production focus / architecture matrix</text>

<g font-family="monospace">
 <rect x="40" y="105" width="210" height="110" rx="14" fill="#111827" stroke="#263249"/>
 <text x="60" y="136" fill="#22D3EE" font-size="14">BACKEND</text>
 <text x="60" y="170" fill="#E6EDF3" font-size="21" font-weight="700">PHP • Laravel</text>
 <text x="60" y="197" fill="#94A3B8" font-size="13">APIs / architecture</text>

 <rect x="270" y="105" width="210" height="110" rx="14" fill="#111827" stroke="#263249"/>
 <text x="290" y="136" fill="#A855F7" font-size="14">FRONTEND</text>
 <text x="290" y="170" fill="#E6EDF3" font-size="21" font-weight="700">React • TS</text>
 <text x="290" y="197" fill="#94A3B8" font-size="13">product interfaces</text>

 <rect x="500" y="105" width="210" height="110" rx="14" fill="#111827" stroke="#263249"/>
 <text x="520" y="136" fill="#22D3EE" font-size="14">DATA</text>
 <text x="520" y="170" fill="#E6EDF3" font-size="21" font-weight="700">SQL • Redis</text>
 <text x="520" y="197" fill="#94A3B8" font-size="13">model / optimize</text>

 <rect x="730" y="105" width="230" height="110" rx="14" fill="#111827" stroke="#263249"/>
 <text x="750" y="136" fill="#A855F7" font-size="14">DELIVERY</text>
 <text x="750" y="170" fill="#E6EDF3" font-size="21" font-weight="700">Linux • Docker</text>
 <text x="750" y="197" fill="#94A3B8" font-size="13">deploy / operate</text>
</g>

<circle cx="940" cy="45" r="7" fill="#22D3EE">
 <animate attributeName="opacity" values="1;.25;1" dur="1.5s" repeatCount="indefinite"/>
</circle>
<text x="920" y="50" text-anchor="end" fill="#94A3B8" font-family="monospace" font-size="13">ONLINE</text>
</svg>